<?xml version="1.0" encoding="utf-8"?>
<!-- Generator: Adobe Illustrator 22.0.0, SVG Export Plug-In . SVG Version: 6.00 Build 0)  -->
<svg version="1.1" id="Calque_1" xmlns="http://www.w3.org/2000/svg" xmlns:xlink="http://www.w3.org/1999/xlink" x="0px" y="0px"
	 viewBox="0 0 1280 800" style="enable-background:new 0 0 1280 800;" xml:space="preserve">
<g id="skill-background">
	<path d="M273.5,564.6c0,28.6-1.2,54.4-3.7,77.3c-2.5,22.9-5.8,43.1-9.8,60.5c-4.1,17.5-8.8,32.4-14.3,44.6
		c-5.5,12.3-11.1,22.3-17,30.1c-5.9,7.8-11.8,13.6-17.8,17.3c-6,3.7-11.7,5.6-17.1,5.6H2.3V655h191.4c9.5,0,17-8.2,22.2-24.5
		c5.3-16.4,7.9-38.3,7.9-65.8c0-13.4-0.7-25.7-2.1-36.8c-1.4-11.2-3.4-20.8-6-29c-2.6-8.2-5.8-14.5-9.5-19
		c-3.8-4.5-7.9-6.7-12.5-6.7H79.6c-8,0-16.7-4.2-26-12.6c-9.3-8.4-17.9-21.8-25.9-40.4c-8-18.6-14.6-43-19.9-73.1
		C2.6,316.9,0,280.1,0,236.5s2.6-80.2,7.9-110.2c5.3-29.9,11.9-54.3,19.9-73.1c8-18.8,16.6-32.4,25.9-40.7C62.9,4.2,71.6,0,79.6,0
		h168.9v145H79.6c-9.4,0-16.8,8.4-22,25.1c-5.3,16.7-7.9,38.9-7.9,66.4c0,27.9,2.6,49.9,7.9,66.1c5.3,16.2,12.6,24.3,22,24.3h114.1
		h0.4c5.3,0.4,11,2.5,17,6.4c6,3.9,11.9,10,17.8,18.1c5.9,8.2,11.5,18.5,16.9,31c5.3,12.5,10.1,27.4,14.2,44.9
		c4.1,17.5,7.4,37.6,9.8,60.3C272.3,510.3,273.5,535.9,273.5,564.6z"/>
	<path d="M364.8,800h-49.6V0h49.6V800z M601.6,800h-70.4L419.5,473.1h-34.9V326.9h34.9L531.2,0h70.4L461,400L601.6,800z"/>
	<path d="M682.8,800h-49.6V0h49.6V800z"/>
	<path d="M992.2,800H765.8c-3.6,0-6.9-1.9-9.9-5.6c-3.1-3.7-5.7-8.8-7.9-15.3c-2.2-6.5-4-14.2-5.2-23.2c-1.3-8.9-1.9-18.6-1.9-29V0
		h49.6v655h201.8V800z"/>
	<path d="M1280,800h-226.4c-3.6,0-6.9-1.9-9.9-5.6c-3.1-3.7-5.7-8.8-7.9-15.3c-2.2-6.5-4-14.2-5.2-23.2c-1.3-8.9-1.9-18.6-1.9-29V0
		h49.6v655H1280V800z"/>
</g>
</svg>
